<mxfile host="app.diagrams.net" agent="Mozilla/5.0 (X11; Linux x86_64) AppleWebKit/537.36 (KHTML, like Gecko) Chrome/136.0.0.0 Safari/537.36" version="26.3.0">
  <diagram name="Pàgina-1" id="mhbHxmUa4zc_a_H4eHv1">
    <mxGraphModel dx="2066" dy="1119" grid="1" gridSize="10" guides="1" tooltips="1" connect="1" arrows="1" fold="1" page="1" pageScale="1" pageWidth="827" pageHeight="1169" math="0" shadow="0">
      <root>
        <mxCell id="0" />
        <mxCell id="1" parent="0" />
        <mxCell id="8oWDULlOzULHxtCyRwSz-1" value="&lt;i style=&quot;font-size: 16px;&quot;&gt;&lt;font style=&quot;font-size: 12px;&quot;&gt;Merge commit&lt;/font&gt;&lt;/i&gt;" style="ellipse;whiteSpace=wrap;html=1;fillColor=#f5f5f5;fontColor=#333333;strokeColor=#666666;" parent="1" vertex="1">
          <mxGeometry x="210" y="615" width="60" height="60" as="geometry" />
        </mxCell>
        <mxCell id="8oWDULlOzULHxtCyRwSz-2" style="rounded=0;orthogonalLoop=1;jettySize=auto;html=1;" parent="1" source="8oWDULlOzULHxtCyRwSz-3" target="8oWDULlOzULHxtCyRwSz-1" edge="1">
          <mxGeometry relative="1" as="geometry" />
        </mxCell>
        <mxCell id="8oWDULlOzULHxtCyRwSz-3" value="&lt;i style=&quot;font-size: 16px;&quot;&gt;&lt;font style=&quot;font-size: 12px;&quot;&gt;Beguda desdejuni&lt;/font&gt;&lt;/i&gt;" style="ellipse;whiteSpace=wrap;html=1;fillColor=#f5f5f5;fontColor=#333333;strokeColor=#666666;" parent="1" vertex="1">
          <mxGeometry x="450" y="615" width="60" height="60" as="geometry" />
        </mxCell>
        <mxCell id="8oWDULlOzULHxtCyRwSz-4" style="rounded=0;orthogonalLoop=1;jettySize=auto;html=1;exitX=0.5;exitY=1;exitDx=0;exitDy=0;fillColor=#dae8fc;strokeColor=#6c8ebf;" parent="1" source="8oWDULlOzULHxtCyRwSz-5" target="8oWDULlOzULHxtCyRwSz-3" edge="1">
          <mxGeometry relative="1" as="geometry">
            <mxPoint x="439" y="635" as="targetPoint" />
          </mxGeometry>
        </mxCell>
        <mxCell id="8oWDULlOzULHxtCyRwSz-5" value="desdejuni" style="ellipse;whiteSpace=wrap;html=1;fillColor=#dae8fc;strokeColor=#6c8ebf;fontSize=16;fontStyle=1" parent="1" vertex="1">
          <mxGeometry x="360" y="550" width="100" height="40" as="geometry" />
        </mxCell>
        <mxCell id="8oWDULlOzULHxtCyRwSz-6" value="&lt;i style=&quot;font-size: 16px;&quot;&gt;&lt;font style=&quot;font-size: 12px;&quot;&gt;Menjar paella&lt;/font&gt;&lt;/i&gt;" style="ellipse;whiteSpace=wrap;html=1;fillColor=#f5f5f5;fontColor=#333333;strokeColor=#666666;" parent="1" vertex="1">
          <mxGeometry x="450" y="860" width="60" height="60" as="geometry" />
        </mxCell>
        <mxCell id="8oWDULlOzULHxtCyRwSz-7" style="rounded=0;orthogonalLoop=1;jettySize=auto;html=1;exitX=0.5;exitY=1;exitDx=0;exitDy=0;fillColor=#dae8fc;strokeColor=#6c8ebf;" parent="1" source="8oWDULlOzULHxtCyRwSz-8" target="8oWDULlOzULHxtCyRwSz-6" edge="1">
          <mxGeometry relative="1" as="geometry">
            <mxPoint x="399" y="865" as="targetPoint" />
          </mxGeometry>
        </mxCell>
        <mxCell id="8oWDULlOzULHxtCyRwSz-8" value="paella" style="ellipse;whiteSpace=wrap;html=1;fillColor=#dae8fc;strokeColor=#6c8ebf;fontSize=16;fontStyle=1" parent="1" vertex="1">
          <mxGeometry x="430" y="790" width="100" height="40" as="geometry" />
        </mxCell>
        <mxCell id="8oWDULlOzULHxtCyRwSz-9" style="rounded=0;orthogonalLoop=1;jettySize=auto;html=1;" parent="1" source="8oWDULlOzULHxtCyRwSz-6" target="8oWDULlOzULHxtCyRwSz-1" edge="1">
          <mxGeometry relative="1" as="geometry">
            <mxPoint x="485" y="593.5" as="sourcePoint" />
            <mxPoint x="337" y="736.5" as="targetPoint" />
          </mxGeometry>
        </mxCell>
        <mxCell id="8oWDULlOzULHxtCyRwSz-10" value="&lt;font color=&quot;#0066cc&quot; style=&quot;font-size: 14px;&quot;&gt;&lt;b&gt;Ancestre comú&lt;/b&gt;&lt;/font&gt;" style="text;html=1;strokeColor=none;fillColor=none;align=center;verticalAlign=middle;whiteSpace=wrap;rounded=0;fontStyle=2" parent="1" vertex="1">
          <mxGeometry x="210" y="690" width="60" height="30" as="geometry" />
        </mxCell>
        <mxCell id="8oWDULlOzULHxtCyRwSz-12" style="rounded=0;orthogonalLoop=1;jettySize=auto;html=1;exitX=0.5;exitY=1;exitDx=0;exitDy=0;fillColor=#d5e8d4;strokeColor=#82b366;" parent="1" source="8oWDULlOzULHxtCyRwSz-13" target="8oWDULlOzULHxtCyRwSz-3" edge="1">
          <mxGeometry relative="1" as="geometry">
            <mxPoint x="715" y="615" as="targetPoint" />
          </mxGeometry>
        </mxCell>
        <mxCell id="8oWDULlOzULHxtCyRwSz-13" value="main" style="ellipse;whiteSpace=wrap;html=1;fillColor=#d5e8d4;strokeColor=#82b366;fontSize=16;fontStyle=1" parent="1" vertex="1">
          <mxGeometry x="500" y="550" width="100" height="40" as="geometry" />
        </mxCell>
        <mxCell id="8oWDULlOzULHxtCyRwSz-14" style="edgeStyle=orthogonalEdgeStyle;rounded=0;orthogonalLoop=1;jettySize=auto;html=1;exitX=0.5;exitY=1;exitDx=0;exitDy=0;fillColor=#f5f5f5;strokeColor=#666666;" parent="1" source="8oWDULlOzULHxtCyRwSz-15" edge="1">
          <mxGeometry relative="1" as="geometry">
            <mxPoint x="480" y="790" as="targetPoint" />
          </mxGeometry>
        </mxCell>
        <mxCell id="8oWDULlOzULHxtCyRwSz-15" value="HEAD" style="ellipse;whiteSpace=wrap;html=1;fillColor=#f5f5f5;strokeColor=#666666;fontSize=16;fontStyle=1;fontColor=#333333;" parent="1" vertex="1">
          <mxGeometry x="430" y="720" width="100" height="40" as="geometry" />
        </mxCell>
        <mxCell id="8oWDULlOzULHxtCyRwSz-23" value="&lt;i style=&quot;font-size: 16px;&quot;&gt;&lt;font style=&quot;font-size: 12px;&quot;&gt;...&lt;/font&gt;&lt;/i&gt;" style="ellipse;whiteSpace=wrap;html=1;fillColor=#f5f5f5;fontColor=#333333;strokeColor=#666666;" parent="1" vertex="1">
          <mxGeometry x="80" y="615" width="60" height="60" as="geometry" />
        </mxCell>
        <mxCell id="8oWDULlOzULHxtCyRwSz-24" style="rounded=0;orthogonalLoop=1;jettySize=auto;html=1;" parent="1" source="8oWDULlOzULHxtCyRwSz-1" target="8oWDULlOzULHxtCyRwSz-23" edge="1">
          <mxGeometry relative="1" as="geometry">
            <mxPoint x="460" y="655" as="sourcePoint" />
            <mxPoint x="280" y="655" as="targetPoint" />
          </mxGeometry>
        </mxCell>
      </root>
    </mxGraphModel>
  </diagram>
</mxfile>
